{
  "accessors": [
    {
      "bufferView": 2,
      "componentType": 5126,
      "count": 3018,
      "max": [
        0.08157632499933243,
        0.11410944163799286,
        0.023068124428391457
      ],
      "min": [
        -0.09202548861503601,
        -0.11410922557115555,
        -4.933477976010181e-05
      ],
      "type": "VEC3"
    },
    {
      "bufferView": 2,
      "byteOffset": 36216,
      "componentType": 5126,
      "count": 3018,
      "max": [
        0.999632716178894,
        1.0,
        0.9999697208404541
      ],
      "min": [
        -0.9992051124572754,
        -1.0,
        -0.9897211790084839
      ],
      "type": "VEC3"
    },
    {
      "bufferView": 3,
      "componentType": 5126,
      "count": 3018,
      "max": [
        1.0,
        1.0,
        0.859282374382019,
        1.0
      ],
      "min": [
        -0.9893695712089539,
        -1.0,
        -0.8672358393669128,
        -1.0
      ],
      "type": "VEC4"
    },
    {
      "bufferView": 1,
      "componentType": 5126,
      "count": 3018,
      "max": [
        0.9699057340621948,
        0.974673867225647
      ],
      "min": [
        0.024374395608901978,
        0.03428176790475845
      ],
      "type": "VEC2"
    },
    {
      "bufferView": 1,
      "byteOffset": 24144,
      "componentType": 5126,
      "count": 3018,
      "max": [
        0.9699057340621948,
        0.974673867225647
      ],
      "min": [
        0.024374395608901978,
        0.03428176790475845
      ],
      "type": "VEC2"
    },
    {
      "bufferView": 1,
      "byteOffset": 48288,
      "componentType": 5126,
      "count": 3018,
      "max": [
        0.9699057340621948,
        0.974673867225647
      ],
      "min": [
        0.024374395608901978,
        0.03428176790475845
      ],
      "type": "VEC2"
    },
    {
      "bufferView": 0,
      "componentType": 5125,
      "count": 9837,
      "type": "SCALAR"
    }
  ],
  "asset": {
    "extras": {
      "author": "Lawrence Pompey (https://sketchfab.com/lawrencepompey)",
      "license": "CC-BY-4.0 (http://creativecommons.org/licenses/by/4.0/)",
      "source": "https://sketchfab.com/3d-models/leather-journal-3d-model-asset-df24ab0704e64ee7b5e1421cb49d88f5",
      "title": "Leather Journal - 3D Model Asset"
    },
    "generator": "Sketchfab-12.65.0",
    "version": "2.0"
  },
  "bufferViews": [
    {
      "buffer": 0,
      "byteLength": 39348,
      "name": "floatBufferViews",
      "target": 34963
    },
    {
      "buffer": 0,
      "byteLength": 72432,
      "byteOffset": 39348,
      "byteStride": 8,
      "name": "floatBufferViews",
      "target": 34962
    },
    {
      "buffer": 0,
      "byteLength": 72432,
      "byteOffset": 111780,
      "byteStride": 12,
      "name": "floatBufferViews",
      "target": 34962
    },
    {
      "buffer": 0,
      "byteLength": 48288,
      "byteOffset": 184212,
      "byteStride": 16,
      "name": "floatBufferViews",
      "target": 34962
    }
  ],
  "buffers": [
    {
      "byteLength": 232500,
      "uri": "scene.bin"
    }
  ],
  "images": [
    {
      "uri": "textures/journal_baseColor.png"
    },
    {
      "uri": "textures/journal_metallicRoughness.png"
    },
    {
      "uri": "textures/journal_normal.png"
    }
  ],
  "materials": [
    {
      "doubleSided": true,
      "name": "journal",
      "normalTexture": {
        "index": 2
      },
      "pbrMetallicRoughness": {
        "baseColorTexture": {
          "index": 0
        },
        "metallicFactor": 0.0,
        "metallicRoughnessTexture": {
          "index": 1
        },
        "roughnessFactor": 0.75
      }
    }
  ],
  "meshes": [
    {
      "name": "Journal_journal_0",
      "primitives": [
        {
          "attributes": {
            "NORMAL": 1,
            "POSITION": 0,
            "TANGENT": 2,
            "TEXCOORD_0": 3,
            "TEXCOORD_1": 4,
            "TEXCOORD_2": 5
          },
          "indices": 6,
          "material": 0,
          "mode": 4
        }
      ]
    }
  ],
  "nodes": [
    {
      "children": [
        1
      ],
      "matrix": [
        1.0,
        0.0,
        0.0,
        0.0,
        0.0,
        2.220446049250313e-16,
        -1.0,
        0.0,
        0.0,
        1.0,
        2.220446049250313e-16,
        0.0,
        0.0,
        0.0,
        0.0,
        1.0
      ],
      "name": "Sketchfab_model"
    },
    {
      "children": [
        2
      ],
      "matrix": [
        1.0,
        0.0,
        0.0,
        0.0,
        0.0,
        0.0,
        1.0,
        0.0,
        0.0,
        -1.0,
        0.0,
        0.0,
        0.0,
        0.0,
        0.0,
        1.0
      ],
      "name": "74020c42818f417fa370e60a554581a4.fbx"
    },
    {
      "children": [
        3
      ],
      "name": "RootNode"
    },
    {
      "children": [
        4
      ],
      "matrix": [
        100.0,
        0.0,
        0.0,
        0.0,
        0.0,
        -1.629206793918314e-05,
        -99.99999999999868,
        0.0,
        0.0,
        99.99999999999868,
        -1.629206793918314e-05,
        0.0,
        0.0,
        0.0,
        0.0,
        1.0
      ],
      "name": "Journal"
    },
    {
      "mesh": 0,
      "name": "Journal_journal_0"
    }
  ],
  "samplers": [
    {
      "magFilter": 9729,
      "minFilter": 9987,
      "wrapS": 10497,
      "wrapT": 10497
    }
  ],
  "scene": 0,
  "scenes": [
    {
      "name": "Sketchfab_Scene",
      "nodes": [
        0
      ]
    }
  ],
  "textures": [
    {
      "sampler": 0,
      "source": 0
    },
    {
      "sampler": 0,
      "source": 1
    },
    {
      "sampler": 0,
      "source": 2
    }
  ]
}
