{
  "accessors": [
    {
      "bufferView": 2,
      "componentType": 5126,
      "count": 1998,
      "max": [
        1.0516653060913086,
        5.786888599395752,
        0.8810856342315674
      ],
      "min": [
        -1.0516682863235474,
        -9.765440940856934,
        -0.8535516858100891
      ],
      "type": "VEC3"
    },
    {
      "bufferView": 2,
      "byteOffset": 23976,
      "componentType": 5126,
      "count": 1998,
      "max": [
        0.9999884366989136,
        1.0,
        1.0
      ],
      "min": [
        -0.9999884366989136,
        -0.9994800686836243,
        -1.0
      ],
      "type": "VEC3"
    },
    {
      "bufferView": 1,
      "componentType": 5126,
      "count": 1998,
      "max": [
        0.65625,
        0.9790664911270142
      ],
      "min": [
        0.34375,
        0.02093350887298584
      ],
      "type": "VEC2"
    },
    {
      "bufferView": 0,
      "componentType": 5125,
      "count": 11232,
      "type": "SCALAR"
    },
    {
      "bufferView": 2,
      "byteOffset": 47952,
      "componentType": 5126,
      "count": 681,
      "max": [
        0.6378328204154968,
        9.67199420928955,
        0.5907269716262817
      ],
      "min": [
        -0.6378363966941833,
        5.67063045501709,
        -0.5568781495094299
      ],
      "type": "VEC3"
    },
    {
      "bufferView": 2,
      "byteOffset": 56124,
      "componentType": 5126,
      "count": 681,
      "max": [
        0.9999764561653137,
        0.999977171421051,
        0.9997968673706055
      ],
      "min": [
        -0.9999765753746033,
        -0.21088401973247528,
        -0.999968409538269
      ],
      "type": "VEC3"
    },
    {
      "bufferView": 1,
      "byteOffset": 15984,
      "componentType": 5126,
      "count": 681,
      "max": [
        0.6318359375,
        0.9748378396034241
      ],
      "min": [
        0.3681640625,
        0.7084335088729858
      ],
      "type": "VEC2"
    },
    {
      "bufferView": 0,
      "byteOffset": 44928,
      "componentType": 5125,
      "count": 3984,
      "type": "SCALAR"
    },
    {
      "bufferView": 2,
      "byteOffset": 64296,
      "componentType": 5126,
      "count": 416,
      "max": [
        0.8748605251312256,
        2.55937123298645,
        0.9435609579086304
      ],
      "min": [
        -0.8748630285263062,
        2.174041986465454,
        -0.866266131401062
      ],
      "type": "VEC3"
    },
    {
      "bufferView": 2,
      "byteOffset": 69288,
      "componentType": 5126,
      "count": 416,
      "max": [
        0.9997082352638245,
        0.9989872574806213,
        0.999394953250885
      ],
      "min": [
        -0.9997082352638245,
        -0.8348207473754883,
        -0.999441385269165
      ],
      "type": "VEC3"
    },
    {
      "bufferView": 1,
      "byteOffset": 21432,
      "componentType": 5126,
      "count": 416,
      "max": [
        0.6318359375,
        0.9748378396034241
      ],
      "min": [
        0.3681640625,
        0.7084335088729858
      ],
      "type": "VEC2"
    },
    {
      "bufferView": 0,
      "byteOffset": 60864,
      "componentType": 5125,
      "count": 2304,
      "type": "SCALAR"
    },
    {
      "bufferView": 2,
      "byteOffset": 74280,
      "componentType": 5126,
      "count": 121,
      "max": [
        0.5,
        -17.59218978881836,
        1.1515305042266846
      ],
      "min": [
        -0.5,
        -47.16413497924805,
        0.48048901557922363
      ],
      "type": "VEC3"
    },
    {
      "bufferView": 2,
      "byteOffset": 75732,
      "componentType": 5126,
      "count": 121,
      "max": [
        0.0,
        0.77520352602005,
        -0.6317115426063538
      ],
      "min": [
        0.0,
        0.0009609409607946873,
        -0.9999995827674866
      ],
      "type": "VEC3"
    },
    {
      "bufferView": 1,
      "byteOffset": 24760,
      "componentType": 5126,
      "count": 121,
      "max": [
        1.0,
        1.0
      ],
      "min": [
        0.0,
        0.0
      ],
      "type": "VEC2"
    },
    {
      "bufferView": 0,
      "byteOffset": 70080,
      "componentType": 5125,
      "count": 600,
      "type": "SCALAR"
    }
  ],
  "asset": {
    "extras": {
      "author": "rafaelserralheiro (https://sketchfab.com/rafaelserralheiro)",
      "license": "CC-BY-4.0 (http://creativecommons.org/licenses/by/4.0/)",
      "source": "https://sketchfab.com/3d-models/classic-pen-kaweco-f974e3e7c83d493ab8ed26e812567880",
      "title": "Classic Pen Kaweco"
    },
    "generator": "Sketchfab-12.65.0",
    "version": "2.0"
  },
  "bufferViews": [
    {
      "buffer": 0,
      "byteLength": 72480,
      "name": "floatBufferViews",
      "target": 34963
    },
    {
      "buffer": 0,
      "byteLength": 25728,
      "byteOffset": 72480,
      "byteStride": 8,
      "name": "floatBufferViews",
      "target": 34962
    },
    {
      "buffer": 0,
      "byteLength": 77184,
      "byteOffset": 98208,
      "byteStride": 12,
      "name": "floatBufferViews",
      "target": 34962
    }
  ],
  "buffers": [
    {
      "byteLength": 175392,
      "uri": "scene.bin"
    }
  ],
  "materials": [
    {
      "doubleSided": true,
      "name": "aiStandardSurface1",
      "pbrMetallicRoughness": {
        "baseColorFactor": [
          0.0,
          0.0,
          0.0,
          1.0
        ],
        "metallicFactor": 0.36147103658536583,
        "roughnessFactor": 0.3641387195121951
      }
    },
    {
      "doubleSided": true,
      "name": "aiStandardSurface2",
      "pbrMetallicRoughness": {
        "metallicFactor": 0.0,
        "roughnessFactor": 0.6
      }
    },
    {
      "doubleSided": true,
      "name": "aiStandardSurface3",
      "pbrMetallicRoughness": {
        "metallicFactor": 0.0,
        "roughnessFactor": 0.6
      }
    },
    {
      "doubleSided": true,
      "name": "lambert1",
      "pbrMetallicRoughness": {
        "baseColorFactor": [
          0.5,
          0.5,
          0.5,
          1.0
        ],
        "metallicFactor": 0.0,
        "roughnessFactor": 0.6
      }
    }
  ],
  "meshes": [
    {
      "name": "pCylinder1_aiStandardSurface1_0",
      "primitives": [
        {
          "attributes": {
            "NORMAL": 1,
            "POSITION": 0,
            "TEXCOORD_0": 2
          },
          "indices": 3,
          "material": 0,
          "mode": 4
        }
      ]
    },
    {
      "name": "pCylinder1_aiStandardSurface2_0",
      "primitives": [
        {
          "attributes": {
            "NORMAL": 5,
            "POSITION": 4,
            "TEXCOORD_0": 6
          },
          "indices": 7,
          "material": 1,
          "mode": 4
        }
      ]
    },
    {
      "name": "pCylinder1_aiStandardSurface3_0",
      "primitives": [
        {
          "attributes": {
            "NORMAL": 9,
            "POSITION": 8,
            "TEXCOORD_0": 10
          },
          "indices": 11,
          "material": 2,
          "mode": 4
        }
      ]
    },
    {
      "name": "pPlane1_lambert1_0",
      "primitives": [
        {
          "attributes": {
            "NORMAL": 13,
            "POSITION": 12,
            "TEXCOORD_0": 14
          },
          "indices": 15,
          "material": 3,
          "mode": 4
        }
      ]
    }
  ],
  "nodes": [
    {
      "children": [
        1
      ],
      "matrix": [
        1.0,
        0.0,
        0.0,
        0.0,
        0.0,
        2.220446049250313e-16,
        -1.0,
        0.0,
        0.0,
        1.0,
        2.220446049250313e-16,
        0.0,
        0.0,
        0.0,
        0.0,
        1.0
      ],
      "name": "Sketchfab_model"
    },
    {
      "children": [
        2
      ],
      "matrix": [
        1.0,
        0.0,
        0.0,
        0.0,
        0.0,
        0.0,
        1.0,
        0.0,
        0.0,
        -1.0,
        0.0,
        0.0,
        0.0,
        0.0,
        0.0,
        1.0
      ],
      "name": "c0de9799b75d49dfa5995227d88f741f.fbx"
    },
    {
      "children": [
        3,
        7,
        9
      ],
      "name": "RootNode"
    },
    {
      "children": [
        4,
        5,
        6
      ],
      "matrix": [
        0.24346484545454794,
        0.9112628765142217,
        -0.5571389457939782,
        0.0,
        -0.9443977630067125,
        0.31330755992661163,
        0.09975589266178814,
        0.0,
        0.2856450579873073,
        0.5400358550909454,
        1.008113255892222,
        0.0,
        0.4792223572731018,
        4.255638122558594,
        1.7417340278625488,
        1.0
      ],
      "name": "pCylinder1"
    },
    {
      "mesh": 0,
      "name": "pCylinder1_aiStandardSurface1_0"
    },
    {
      "mesh": 1,
      "name": "pCylinder1_aiStandardSurface2_0"
    },
    {
      "mesh": 2,
      "name": "pCylinder1_aiStandardSurface3_0"
    },
    {
      "children": [
        8
      ],
      "matrix": [
        -32.626813596242066,
        3.9956322837015186e-15,
        -0.8567931861102246,
        0.0,
        1.1924981670312064e-16,
        1.0,
        1.2242247539218106e-16,
        0.0,
        0.8567931861102246,
        3.892082854215096e-15,
        -32.626813596242066,
        0.0,
        -1.5363119840621948,
        43.32673263549805,
        25.56576156616211,
        1.0
      ],
      "name": "pPlane1"
    },
    {
      "mesh": 3,
      "name": "pPlane1_lambert1_0"
    },
    {
      "children": [
        10
      ],
      "matrix": [
        -0.9928013496770987,
        -0.0999857991418954,
        0.06594179288802735,
        0.0,
        -0.09976597719213726,
        0.9949888642441967,
        0.00662644889374379,
        0.0,
        -0.06627390039999828,
        -4.2240516640035253e-16,
        -0.99780146829205,
        0.0,
        53.7148551940918,
        7.435683727264404,
        -4.589023113250732,
        1.0
      ],
      "name": "persp1"
    },
    {
      "name": "Object_10"
    }
  ],
  "scene": 0,
  "scenes": [
    {
      "name": "Sketchfab_Scene",
      "nodes": [
        0
      ]
    }
  ]
}
